<svg width="26" height="26" viewBox="0 0 26 26" fill="none" xmlns="http://www.w3.org/2000/svg">
<path d="M23.4962 13.4585V25.9585H3.49615V13.4585" fill="#2133D2" fill-opacity="0.1"/>
<path d="M25.9962 7.2085H0.996155V13.4585H25.9962V7.2085Z" fill="#2133D2" fill-opacity="0.1"/>
<path d="M13.4962 7.2085H7.87115C7.04235 7.2085 6.2475 6.87926 5.66145 6.2932C5.0754 5.70715 4.74615 4.9123 4.74615 4.0835C4.74615 3.25469 5.0754 2.45984 5.66145 1.87379C6.2475 1.28774 7.04235 0.958496 7.87115 0.958496C12.2462 0.958496 13.4962 7.2085 13.4962 7.2085Z" fill="#2133D2" fill-opacity="0.1"/>
<path d="M13.4962 7.2085H19.1212C19.95 7.2085 20.7448 6.87926 21.3309 6.2932C21.9169 5.70715 22.2462 4.9123 22.2462 4.0835C22.2462 3.25469 21.9169 2.45984 21.3309 1.87379C20.7448 1.28774 19.95 0.958496 19.1212 0.958496C14.7462 0.958496 13.4962 7.2085 13.4962 7.2085Z" fill="#2133D2" fill-opacity="0.1"/>
</svg>
